<?xml version="1.0" encoding="UTF-8"?>
<!DOCTYPE svg PUBLIC "-//W3C//DTD SVG 1.1//EN" "http://www.w3.org/Graphics/SVG/1.1/DTD/svg11.dtd">
<svg xmlns="http://www.w3.org/2000/svg" version="1.1" width="2117px" height="2117px" style="shape-rendering:geometricPrecision; text-rendering:geometricPrecision; image-rendering:optimizeQuality; fill-rule:evenodd; clip-rule:evenodd" xmlns:xlink="http://www.w3.org/1999/xlink">
<g><path style="opacity:1" fill="#0000cc" d="M -0.5,-0.5 C 705.167,-0.5 1410.83,-0.5 2116.5,-0.5C 2116.5,705.167 2116.5,1410.83 2116.5,2116.5C 1410.83,2116.5 705.167,2116.5 -0.5,2116.5C -0.5,1410.83 -0.5,705.167 -0.5,-0.5 Z"/></g>
<g><path style="opacity:1" fill="#fefefe" d="M 598.5,435.5 C 904.5,435.5 1210.5,435.5 1516.5,435.5C 1516.5,510.833 1516.5,586.167 1516.5,661.5C 1401.83,661.5 1287.17,661.5 1172.5,661.5C 1172.5,925.5 1172.5,1189.5 1172.5,1453.5C 1287.17,1453.5 1401.83,1453.5 1516.5,1453.5C 1516.5,1528.83 1516.5,1604.17 1516.5,1679.5C 1210.83,1679.5 905.167,1679.5 599.5,1679.5C 599.5,1604.5 599.5,1529.5 599.5,1454.5C 714.001,1454.83 828.335,1454.5 942.5,1453.5C 942.5,1189.5 942.5,925.5 942.5,661.5C 827.833,661.5 713.167,661.5 598.5,661.5C 598.5,586.167 598.5,510.833 598.5,435.5 Z"/></g>
</svg>
